<?xml version="1.0" encoding="UTF-8"?>
<svg width="52px" height="52px" viewBox="0 0 52 52" version="1.1" xmlns="http://www.w3.org/2000/svg" xmlns:xlink="http://www.w3.org/1999/xlink">
    <!-- Generator: Sketch 52.5 (67469) - http://www.bohemiancoding.com/sketch -->
    <title>icon-discussion</title>
    <desc>Created with Sketch.</desc>
    <g id="badges" stroke="none" stroke-width="1" fill="none" fill-rule="evenodd">
        <g id="badget" transform="translate(-412.000000, -223.000000)">
            <g id="icon-discussion" transform="translate(412.000000, 223.000000)">
                <g>
                    <circle id="Oval" fill="#989898" cx="26" cy="26" r="26"></circle>
                    <path d="M42.7792077,6.13829826 C48.4189678,10.9076011 52,18.0356031 52,26 C52,34.03744 48.3529818,41.2230733 42.6235191,45.9923262 C42.4201725,45.9285249 42.251697,45.7491696 42.251697,45.5053677 L42.251697,37.5633029 L39.2512445,37.5633029 C37.2152231,37.5633029 35.5542583,35.9748899 35.5542583,34.027803 L35.5542583,28.391499 L31.5893746,28.391499 C31.4286361,28.391499 31.2678975,28.3402598 31.1607385,28.2377816 C31.0535795,28.1353033 31,27.9815859 31,27.8278686 L32.2323287,17.7849995 C32.2323287,15.3767604 33.0360214,13.1222388 34.3755091,11.2263911 L35.4470993,9.94541286 C37.3027024,7.95960764 39.8869284,6.56607928 42.7792077,6.13829826 Z" id="Combined-Shape" fill="#D1D1D1"></path>
                    <path d="M11.7879446,47.7755096 C4.68981995,43.1333827 0,35.1143744 0,26 C0,19.7153884 2.22976617,13.9515666 5.94133897,9.45649413 C7.04344236,9.15522864 8.19662795,9 9.37686668,9 C16.2350439,9 21.8073129,14.2776302 21.8073129,20.7849995 L23.0396416,30.8791077 C23.0396416,31.0328251 22.9860621,31.1865425 22.8789031,31.2890207 C22.771744,31.391499 22.6110055,31.4427381 22.450267,31.4427381 L18.4853833,31.4427381 L18.4853833,37.0790422 C18.4853833,39.026129 16.8244185,40.614542 14.7883971,40.614542 L11.7879446,40.614542 L11.7879446,47.7755096 Z" id="Combined-Shape" fill="#D1D1D1"></path>
                    <circle id="Oval-3" fill="#FFFFFF" cx="17" cy="22" r="2"></circle>
                    <circle id="Oval-3" fill="#FFFFFF" cx="37" cy="20" r="2"></circle>
                </g>
            </g>
        </g>
    </g>
</svg>