<?xml version="1.0" encoding="UTF-8"?>
<svg width="52px" height="51px" viewBox="0 0 52 51" version="1.1" xmlns="http://www.w3.org/2000/svg" xmlns:xlink="http://www.w3.org/1999/xlink">
    <!-- Generator: Sketch 52.5 (67469) - http://www.bohemiancoding.com/sketch -->
    <title>Group 10</title>
    <desc>Created with Sketch.</desc>
    <g id="badges" stroke="none" stroke-width="1" fill="none" fill-rule="evenodd">
        <g id="badget" transform="translate(-413.000000, -375.000000)">
            <g id="Group-10" transform="translate(413.000000, 375.000000)">
                <path d="M28.1655995,22.3356021 C30.8209845,22.3356021 31.5103669,23.5817094 35.8048921,22.9586557 C40.0994174,22.3356021 42.8751471,22.6614394 44.7174621,26.072456 C46.559777,29.4834727 46.197257,34.2756282 44.1324528,37.8499304 C42.0676486,41.4242327 41.6642708,41.8476743 40.0994174,44.2041232 C38.534564,46.5605721 38.3443895,47.2848994 37.9268972,49.660062 C37.5094049,52.0352245 35.8468642,51.5659161 35.3736567,50.1928498 C34.9004492,48.8197835 35.3736567,47.0496948 34.1367799,46.5605721 C33.3121954,46.2344902 32.710224,46.6575649 32.3308656,47.8297961 L31.9011159,51.2088895 C31.0606835,51.956456 30.296519,51.956456 29.6086224,51.2088895 C28.5767775,50.0875398 28.1693139,48.0543596 26.4183718,44.2041232 C24.6674298,40.3538867 21.6279815,37.3725496 21.0169719,32.3969271 C20.6096321,29.0798455 21.3828348,26.4189639 23.3365801,24.4142822 C24.7856697,23.0284955 26.3953429,22.3356021 28.1655995,22.3356021 Z" id="Combined-Shape" fill="#FFFFFF" transform="translate(33.411559, 37.052583) rotate(-83.000000) translate(-33.411559, -37.052583) "></path>
                <ellipse id="Oval" fill="#E4392A" cx="26" cy="25.509434" rx="26" ry="25.509434"></ellipse>
                <path d="M3.6783136,38.5974675 C9.88291603,36.5408893 17.6157929,35.3207547 26,35.3207547 C34.3842071,35.3207547 42.117084,36.5408893 48.3216864,38.5974675 C43.7798185,46.0380646 35.4827596,51.0188679 26,51.0188679 C16.5172404,51.0188679 8.22018151,46.0380646 3.6783136,38.5974675 Z" id="Combined-Shape" fill="#A91003"></path>
                <path d="M28.3590448,21.8529761 C31.0079125,21.8529761 31.6956029,23.0849574 35.979588,22.4689668 C40.2635731,21.8529761 43.0324902,22.1751197 44.8702835,25.5474689 C46.7080768,28.9198182 46.3464465,33.6576497 44.2867101,37.1914335 C42.2269736,40.7252173 41.8245858,41.1438588 40.2635731,43.4735949 C38.7025603,45.803331 38.5128527,46.5194474 38.096385,48.867685 C37.6799173,51.2159226 36.0214571,50.7519344 35.549411,49.3944332 C35.0773649,48.036932 35.549411,46.2869091 34.3155699,45.803331 C33.4930092,45.4809457 32.8925152,45.8992244 32.5140879,47.0581671 L32.085393,50.398955 C31.2470233,51.1380471 30.4847343,51.1380471 29.798526,50.398955 C28.7692136,49.290317 28.36275,47.2801849 26.6161053,43.4735949 C24.8694607,39.6670049 21.8374723,36.7194642 21.2279622,31.8002456 C20.8216222,28.5207666 21.5929272,25.8900487 23.5418773,23.9080922 C24.9874104,22.5380148 26.5931329,21.8529761 28.3590448,21.8529761 Z" id="Combined-Shape" fill="#FFFFFF" transform="translate(33.592129, 36.403125) rotate(-79.000000) translate(-33.592129, -36.403125) "></path>
                <path d="M7.59815076,43.5305614 C2.90311025,38.9155927 5.86197757e-14,32.5451454 5.86197757e-14,25.509434 C5.86197757e-14,21.9776041 0.731555108,18.6134142 2.05410599,15.5547715 C3.03171545,15.5021367 4.20861121,15.3031659 5.95139857,14.6322652 C10.0654513,13.048526 12.8870092,12.728646 15.4722145,15.6023948 C18.0574198,18.4761437 18.7671211,23.1881473 17.5193994,27.1129344 C16.2716777,31.0377215 15.9666334,31.5389836 14.9424306,34.1730441 C13.9182279,36.8071045 13.8914271,37.5502697 14.0076651,39.9400791 C14.1239032,42.3298885 12.3727752,42.2566634 11.5979305,41.0385033 C10.8230857,39.8203432 10.8969639,38.0022836 9.56296522,37.8125961 C8.67363277,37.6861378 8.17183311,38.2324511 8.05756626,39.451536 L8.38555581,42.8139234 C8.13591524,43.1568422 7.87344689,43.3957215 7.59815076,43.5305614 Z" id="Combined-Shape" fill="#D1D1D1"></path>
                <path d="M26,16.4339623 C25.5857864,16.4339623 25.25,16.1045114 25.25,15.6981132 C25.25,15.291715 25.5857864,14.9622642 26,14.9622642 L29,14.9622642 C29.618034,14.9622642 29.9708204,15.6545243 29.6,16.1396226 L27.5,18.8867925 L29,18.8867925 C29.4142136,18.8867925 29.75,19.2162433 29.75,19.6226415 C29.75,20.0290397 29.4142136,20.3584906 29,20.3584906 L26,20.3584906 C25.381966,20.3584906 25.0291796,19.6662305 25.4,19.1811321 L27.5,16.4339623 L26,16.4339623 Z" id="Path-4" fill="#000000" fill-rule="nonzero"></path>
                <path d="M32,14.4716981 C31.5857864,14.4716981 31.25,14.1422473 31.25,13.7358491 C31.25,13.3294508 31.5857864,13 32,13 L35,13 C35.618034,13 35.9708204,13.6922601 35.6,14.1773585 L33.5,16.9245283 L35,16.9245283 C35.4142136,16.9245283 35.75,17.2539791 35.75,17.6603774 C35.75,18.0667756 35.4142136,18.3962264 35,18.3962264 L32,18.3962264 C31.381966,18.3962264 31.0291796,17.7039663 31.4,17.2188679 L33.5,14.4716981 L32,14.4716981 Z" id="Path-4" fill="#000000" fill-rule="nonzero"></path>
                <path d="M39,12.509434 C38.5857864,12.509434 38.25,12.1799831 38.25,11.7735849 C38.25,11.3671867 38.5857864,11.0377358 39,11.0377358 L42,11.0377358 C42.618034,11.0377358 42.9708204,11.729996 42.6,12.2150943 L40.5,14.9622642 L42,14.9622642 C42.4142136,14.9622642 42.75,15.291715 42.75,15.6981132 C42.75,16.1045114 42.4142136,16.4339623 42,16.4339623 L39,16.4339623 C38.381966,16.4339623 38.0291796,15.7417021 38.4,15.2566038 L40.5,12.509434 L39,12.509434 Z" id="Path-4" fill="#000000" fill-rule="nonzero"></path>
            </g>
        </g>
    </g>
</svg>