<?xml version="1.0" encoding="UTF-8"?>
<svg width="52px" height="52px" viewBox="0 0 52 52" version="1.1" xmlns="http://www.w3.org/2000/svg" xmlns:xlink="http://www.w3.org/1999/xlink">
    <!-- Generator: Sketch 52.5 (67469) - http://www.bohemiancoding.com/sketch -->
    <title>icon-ask</title>
    <desc>Created with Sketch.</desc>
    <g id="badges" stroke="none" stroke-width="1" fill="none" fill-rule="evenodd">
        <g id="badget" transform="translate(-411.000000, -161.000000)">
            <g id="icon-ask" transform="translate(411.000000, 161.000000)">
                <g>
                    <circle id="Oval" fill="#61BD46" cx="26" cy="26" r="26"></circle>
                    <path d="M26.64,13 C28.98,13 30.888,13.612 32.328,14.908 C33.768,16.168 34.488,17.896 34.488,20.092 C34.488,21.892 34.02,23.368 33.156,24.52 C32.832,24.88 31.788,25.852 30.06,27.364 C29.412,27.904 28.944,28.516 28.62,29.164 C28.26,29.884 28.08,30.64 28.08,31.504 L28.08,32.008 L23.94,32.008 L23.94,31.504 C23.94,30.136 24.156,28.948 24.66,27.976 C25.128,27.004 26.532,25.492 28.872,23.404 L29.304,22.9 C29.952,22.108 30.276,21.244 30.276,20.344 C30.276,19.156 29.916,18.22 29.268,17.536 C28.584,16.852 27.612,16.528 26.388,16.528 C24.804,16.528 23.688,16.996 23.004,18.004 C22.392,18.832 22.104,20.02 22.104,21.532 L18,21.532 C18,18.868 18.756,16.78 20.34,15.268 C21.888,13.756 23.976,13 26.64,13 Z M25.992,33.772 C26.784,33.772 27.468,34.024 28.008,34.528 C28.512,35.032 28.8,35.68 28.8,36.472 C28.8,37.264 28.512,37.948 27.972,38.452 C27.432,38.956 26.784,39.208 25.992,39.208 C25.2,39.208 24.552,38.92 24.012,38.416 C23.472,37.912 23.22,37.264 23.22,36.472 C23.22,35.68 23.472,35.032 24.012,34.528 C24.552,34.024 25.2,33.772 25.992,33.772 Z" id="？" fill="#FFFFFF"></path>
                </g>
            </g>
        </g>
    </g>
</svg>