<?xml version="1.0" encoding="UTF-8"?>
<svg width="89px" height="74px" viewBox="0 0 89 74" version="1.1" xmlns="http://www.w3.org/2000/svg" xmlns:xlink="http://www.w3.org/1999/xlink">
    <!-- Generator: Sketch 52.5 (67469) - http://www.bohemiancoding.com/sketch -->
    <title>logo</title>
    <desc>Created with Sketch.</desc>
    <g id="Symbols" stroke="none" stroke-width="1" fill="none" fill-rule="evenodd">
        <g id="header-c2" transform="translate(-60.000000, 2.000000)">
            <g id="header" transform="translate(0.000000, -2.000000)">
                <g id="logo" transform="translate(60.000000, 0.000000)">
                    <g id="Group-2" transform="translate(32.000000, 28.000000)">
                        <path d="M9.53603475,0.0318272293 C13.0267574,0.0318272293 13.9330074,1.67946855 19.5785152,0.85564789 C25.224023,0.0318272293 28.8729488,0.462659236 31.2948238,4.97281051 C33.7166988,9.48296178 33.2401363,15.8192974 30.5257808,20.5453498 C27.8114254,25.2714023 27.2811519,25.8312898 25.224023,28.9470591 C23.1668941,32.0628284 22.9168941,33.0205563 22.368066,36.1610694 C21.8192379,39.3015824 19.633691,38.6810485 19.0116207,36.8655379 C18.3895504,35.0500274 19.0116207,32.7095616 17.3856441,32.0628284 C16.3016597,31.631673 15.5103186,32.1910753 15.0116207,33.7410355 L14.4466793,38.2089769 C13.3418616,39.1974323 12.3373043,39.1974323 11.4330074,38.2089769 C10.0765621,36.7262938 9.54091756,34.0379603 7.23915975,28.9470591 C4.93740193,23.8561579 0.941796465,19.9141421 0.138573809,13.3352209 C-0.396907962,8.94927349 0.61953084,5.43097383 3.18789022,2.78032195 C5.09283813,0.947992138 7.20888631,0.0318272293 9.53603475,0.0318272293 Z" id="Path-3" fill="#0068F6"></path>
                        <path d="M7.23688462,15.8305274 C8.94864931,16.9632124 12.0098683,15.8485071 13.3337531,12.8017387 C14.6576378,9.75497027 14.9435379,6.80381979 13.2317732,5.67113482 C11.5200085,4.53844984 8.79034754,5.89448475 7.13490477,8.69992355 C5.47946199,11.5053624 5.52511993,14.6978425 7.23688462,15.8305274 Z" id="Oval-2" fill="#FFFFFF"></path>
                        <path d="M26.0345164,15.913832 C24.3107564,17.0544543 21.2280857,15.9319377 19.8949238,12.8638188 C18.5617618,9.79569994 18.2738582,6.82386909 19.9976182,5.68324676 C21.7213782,4.54262442 24.4701675,5.90816183 26.1372109,8.73325992 C27.8042543,11.558358 27.7582764,14.7732096 26.0345164,15.913832 Z" id="Oval-2" fill="#FFFFFF"></path>
                    </g>
                    <polygon id="Triangle" fill="#0068F6" transform="translate(74.000000, 17.000000) rotate(-138.000000) translate(-74.000000, -17.000000) " points="74 4 78 30 70 30"></polygon>
                    <polygon id="Triangle" fill="#0068F6" transform="translate(37.000000, 14.000000) rotate(-202.000000) translate(-37.000000, -14.000000) " points="37 1 41 27 33 27"></polygon>
                    <polygon id="Triangle" fill="#0068F6" transform="translate(75.500000, 63.000000) rotate(-29.000000) translate(-75.500000, -63.000000) " points="73.981307 50 78 76 73 70.7965197"></polygon>
                    <polygon id="Triangle" fill="#0068F6" transform="translate(14.000000, 31.000000) rotate(-244.000000) translate(-14.000000, -31.000000) " points="14 18 18 44 10 44"></polygon>
                    <polygon id="Triangle" fill="#0068F6" transform="translate(83.000000, 49.500000) rotate(-65.000000) translate(-83.000000, -49.500000) " points="83 45 87 54 79 54"></polygon>
                    <polygon id="Triangle" fill="#0068F6" transform="translate(13.397135, 65.170905) scale(-1, -1) rotate(-138.000000) translate(-13.397135, -65.170905) " points="13.9783567 54.5221621 16.2641046 71.0364448 10.5301662 75.8196477"></polygon>
                </g>
            </g>
        </g>
    </g>
</svg>